<svg id="Camada_2" data-name="Camada 2" xmlns="http://www.w3.org/2000/svg" viewBox="0 0 180 207"><defs><style>.cls-1,.cls-2,.cls-4{fill:none;}.cls-1,.cls-2,.cls-3,.cls-4{stroke:#fff;}.cls-1,.cls-2{stroke-miterlimit:10;}.cls-1,.cls-3{stroke-width:4px;}.cls-2,.cls-4{stroke-width:2px;}.cls-3,.cls-4{font-size:37.39px;font-family:AdobeMingStd-Light-B5pc-H, Adobe Ming Std;}</style></defs><title>Logo</title><path class="cls-1" d="M98.74,52.6v59.49L54.52,132.34S59.81,86.55,98.74,52.6Z"/><path class="cls-1" d="M124,38.59V97.14l47-31.46S167.57,23.64,124,38.59Z"/><polygon class="cls-2" points="84.11 10.56 121.17 33.29 138.92 29.24 102.24 9 84.11 10.56"/><polygon class="cls-1" points="76.63 30.8 103.73 47 104.35 92.47 118.36 98.39 118.36 37.65 76.63 14.61 76.63 30.8"/><path class="cls-1" d="M97.5,47.93S62.61,66.62,48,132.34L5.31,109.6s7.78-53.88,49.21-86Z"/><path class="cls-1" d="M51.4,162.86l57-25.23,60.42-42L152,85l-28,20.87s-2.49,2.49-18.06-8.72l-1.56,18.69L51.4,141.37,32.72,131.09l-1.87-1.25-21.18,10Z"/><path class="cls-1" d="M168.82,100.88s-6.23,45.16-44.85,80c0,0-57.93,43.29-69.45-12.14L114,141.68Z"/><path class="cls-1" d="M47,167.53s1.25,10.9,4.36,14.95c0,0-28.65-15.26-34.26-19.62A58,58,0,0,1,7.49,145.1Z"/><text class="cls-3" transform="matrix(0.76, -0.34, 0, 1, 108.36, 180.28)">$</text><text class="cls-4" transform="matrix(0.76, -0.34, 0, 1, 108.36, 180.28)">$</text></svg>