<svg xmlns="http://www.w3.org/2000/svg" viewBox="0 0 441 387"><defs><style>.cls-1,.cls-2,.cls-3{fill:none;stroke:#fff;}.cls-1{stroke-miterlimit:10;stroke-width:4px;}.cls-2{font-size:45.98px;stroke-width:2px;font-family:AdobeMingStd-Light-B5pc-H, Adobe Ming Std;}.cls-3{stroke-linecap:round;stroke-linejoin:round;stroke-width:4.5px;}.cls-14,.cls-4{font-size:21.93px;}.cls-14,.cls-15,.cls-21,.cls-4{font-family:Chella-Regular;}.cls-5{letter-spacing:0em;}.cls-6{letter-spacing:-0.02em;}.cls-7{letter-spacing:-0.02em;}.cls-8{letter-spacing:-0.01em;}.cls-9{letter-spacing:0em;}.cls-10{letter-spacing:0.01em;}.cls-11{letter-spacing:-0.01em;}.cls-12{letter-spacing:0em;}.cls-13{letter-spacing:0em;}.cls-14,.cls-21{fill:#fff;}.cls-15,.cls-21{font-size:61.92px;}.cls-16{letter-spacing:0em;}.cls-17{letter-spacing:-0.02em;}.cls-18{letter-spacing:0em;}.cls-19{letter-spacing:0em;}.cls-20{letter-spacing:0em;}</style></defs><title>Logo</title><g id="Camada_2" data-name="Camada 2"><path class="cls-1" d="M218.64,57.79v73.15l-54.38,24.89S170.77,99.53,218.64,57.79Z"/><path class="cls-1" d="M249.66,40.55v72l57.83-38.68S303.28,22.17,249.66,40.55Z"/><polygon class="cls-1" points="200.64 6.08 246.21 34.04 268.04 29.06 222.94 4.17 200.64 6.08"/><polygon class="cls-1" points="191.45 30.98 224.77 50.89 225.53 106.81 242.77 114.08 242.77 39.4 191.45 11.06 191.45 30.98"/><path class="cls-1" d="M217.11,52s-42.9,23-60.9,103.79l-52.47-28s9.58-66.25,60.52-105.7Z"/><path class="cls-1" d="M160.43,193.36l70.08-31,74.3-51.7-20.68-13-34.47,25.66s-3.06,3.06-22.21-10.73l-1.92,23-65.1,31.41-23-12.64-2.3-1.53-26,12.25Z"/><path class="cls-1" d="M304.81,117.15s-7.66,55.53-55.15,98.42c0,0-71.23,53.24-85.4-14.93l73.14-33.32Z"/><path class="cls-1" d="M155.06,199.11s1.54,13.4,5.37,18.38c0,0-35.24-18.77-42.13-24.13a71.27,71.27,0,0,1-11.87-21.83Z"/><text class="cls-2" transform="matrix(0.76, -0.34, 0, 1, 230.46, 214.79)">$</text></g><g id="Camada_5" data-name="Camada 5"><path class="cls-3" d="M77.94,349.47s139-50,256-14"/></g><g id="Camada_4" data-name="Camada 4"><text class="cls-4" transform="translate(5.94 379.13) scale(0.85 1)"><tspan class="cls-5">C</tspan><tspan x="15.17" y="0">o</tspan><tspan class="cls-6" x="27.89" y="0">n</tspan><tspan x="41.46" y="0">fiança n</tspan><tspan class="cls-7" x="127.26" y="0">o</tspan><tspan x="139.61" y="0">s núme</tspan><tspan class="cls-8" x="215.76" y="0">r</tspan><tspan class="cls-7" x="224.31" y="0">o</tspan><tspan class="cls-9" x="236.66" y="0">s. </tspan><tspan class="cls-10" x="255.84" y="0">S</tspan><tspan x="269.79" y="0">egu</tspan><tspan class="cls-11" x="308.32" y="0">r</tspan><tspan x="316.93" y="0">ança nas d</tspan><tspan class="cls-12" x="430.69" y="0">e</tspan><tspan x="442.2" y="0">cisõ</tspan><tspan class="cls-13" x="483.62" y="0">e</tspan><tspan x="495.09" y="0">s</tspan></text><text class="cls-14" transform="translate(5.94 379.13) scale(0.85 1)"><tspan class="cls-5">C</tspan><tspan x="15.17" y="0">o</tspan><tspan class="cls-6" x="27.89" y="0">n</tspan><tspan x="41.46" y="0">fiança n</tspan><tspan class="cls-7" x="127.26" y="0">o</tspan><tspan x="139.61" y="0">s núme</tspan><tspan class="cls-8" x="215.76" y="0">r</tspan><tspan class="cls-7" x="224.31" y="0">o</tspan><tspan class="cls-9" x="236.66" y="0">s. </tspan><tspan class="cls-10" x="255.84" y="0">S</tspan><tspan x="269.79" y="0">egu</tspan><tspan class="cls-11" x="308.32" y="0">r</tspan><tspan x="316.93" y="0">ança nas d</tspan><tspan class="cls-12" x="430.69" y="0">e</tspan><tspan x="442.2" y="0">cisõ</tspan><tspan class="cls-13" x="483.62" y="0">e</tspan><tspan x="495.09" y="0">s</tspan></text><text class="cls-15" transform="translate(32.94 301.52) scale(0.85 1)">Fina<tspan class="cls-16" x="135.04" y="0">c</tspan><tspan x="167.3" y="0">o</tspan><tspan class="cls-17" x="203.21" y="0">n</tspan><tspan class="cls-18" x="241.84" y="0">t</tspan><tspan x="268.16" y="0">a, </tspan><tspan class="cls-19" x="330.07" y="0">L</tspan><tspan class="cls-20" x="367.53" y="0">da</tspan></text><text class="cls-21" transform="translate(32.94 301.52) scale(0.85 1)">Fina<tspan class="cls-16" x="135.04" y="0">c</tspan><tspan x="167.3" y="0">o</tspan><tspan class="cls-17" x="203.21" y="0">n</tspan><tspan class="cls-18" x="241.84" y="0">t</tspan><tspan x="268.16" y="0">a, </tspan><tspan class="cls-19" x="330.07" y="0">L</tspan><tspan class="cls-20" x="367.53" y="0">da</tspan></text></g></svg>